HIERARCHY
ROOT base
{
	OFFSET 0.0 0.0 0.0
	CHANNELS 6 Xposition Yposition Zposition Zrotation Yrotation Xrotation
	JOINT root
	{
		OFFSET 0 0 0
		CHANNELS 6 Xposition Yposition Zposition Zrotation Yrotation Xrotation
		JOINT chest
		{
			OFFSET 0 4.72302 0
			CHANNELS 3 Zrotation Yrotation Xrotation
			JOINT neck
			{
				OFFSET 0 4.47788 0
				CHANNELS 3 Zrotation Yrotation Xrotation
				End Site
				{
					OFFSET 0.0 0.0 0.0
				}
			}
			JOINT right_shoulder
			{
				OFFSET -0.481 4.87 3.6622
				CHANNELS 3 Zrotation Yrotation Xrotation
				JOINT right_elbow
				{
					OFFSET 0 -5.49576 0
					CHANNELS 3 Zrotation Yrotation Xrotation
					JOINT right_wrist
					{
						OFFSET 0 -5.17894 0
						CHANNELS 3 Zrotation Yrotation Xrotation
						End Site
						{
							OFFSET 0.0 0.0 0.0
						}
					}
				}
			}
			JOINT left_shoulder
			{
				OFFSET -0.481 4.87 -3.6622
				CHANNELS 3 Zrotation Yrotation Xrotation
				JOINT left_elbow
				{
					OFFSET 0 -5.49576 0
					CHANNELS 3 Zrotation Yrotation Xrotation
					JOINT left_wrist
					{
						OFFSET 0 -5.17894 0
						CHANNELS 3 Zrotation Yrotation Xrotation
						End Site
						{
							OFFSET 0.0 0.0 0.0
						}
					}
				}
			}
		}
		JOINT right_hip
		{
			OFFSET 0 0 1.69774
			CHANNELS 3 Zrotation Yrotation Xrotation
			JOINT right_knee
			{
				OFFSET 0 -8.43092 0
				CHANNELS 3 Zrotation Yrotation Xrotation
				JOINT right_ankle
				{
					OFFSET 0 -8.1974 0
					CHANNELS 3 Zrotation Yrotation Xrotation
					End Site
					{
						OFFSET 0.0 0.0 0.0
					}
				}
			}
		}
		JOINT left_hip
		{
			OFFSET 0 0 -1.69774
			CHANNELS 3 Zrotation Yrotation Xrotation
			JOINT left_knee
			{
				OFFSET 0 -8.43092 0
				CHANNELS 3 Zrotation Yrotation Xrotation
				JOINT left_ankle
				{
					OFFSET 0 -8.1974 0
					CHANNELS 3 Zrotation Yrotation Xrotation
					End Site
					{
						OFFSET 0.0 0.0 0.0
					}
				}
			}
		}
	}
	JOINT red_arrow
	{
		OFFSET 0 0 0
		CHANNELS 3 Zrotation Yrotation Xrotation
		End Site
		{
			OFFSET 0.0 0.0 0.0
		}
	}
	JOINT blue_arrow
	{
		OFFSET 0 0 0
		CHANNELS 3 Zrotation Yrotation Xrotation
		End Site
		{
			OFFSET 0.0 0.0 0.0
		}
	}
}
MOTION
Frames: 8
Frame Time: 0.0333333333333333
0 18.08466 0 0 0 0 0 0 0 0 -90 0 0 0 0 0 0 0 0 0 -90 0 0 0 0 0 0 0 0 90 0 0 0 0 0 0 0 0 0 0 0 0 0 0 0 0 0 0 0 0 0 0 0 0 0 0 0 0 0 0
1.90123240947723 0 -0.0638367265462875 0 -6.13051526707691 0 0 15.9110616803169 0 -23.8786741233182 7.95138670365879E-16 -9.04259448520249 -4.47797649501643 3.94606586690422 7.06414621555774 1.24834106746582 -1.10172092062379 1.34191351149733 -5.74337653521917 16.0468890381219 -30.7180723210877 80.8001748245779 0 0 0 0 0 -15.6009921589042 -17.3361301385388 35.7876183064672 73.6056223831016 0 0 0 0 0 50.834984644845 -1.67835952724364 9.51686664896116 -48.2422613153929 0 0 21.5369816193027 3.3020504116986 -0.986885275508287 25.0103236382992 5.99191361389227 13.1389990904809 -84.717602502282 0 0 -3.13874060070971 4.00754143822377 -18.0744291432672 0 0 0 0 0 0
3.82703058719635 0 -0.309269690513611 0 -6.32863065934058 0 0 16.0369745373726 0 -24.8411048522311 -3.41678253025592 -6.94425114004297 -4.77717039342681 9.19650902663084 2.38604198908352 2.40311963536704 -1.60711858944307 1.94131966417357 8.75780406181523 23.1343262722044 -32.8103470237513 84.4351263687778 0 0 0 0 0 -28.2700081397894 -12.8693184309551 36.8153509439649 65.3810842449766 0 0 0 0 0 44.0958187906898 0.560346219053261 8.19709639890529 -46.0999007652321 0 0 27.3239129927466 6.94626637166922 0.165992476183764 41.8354626033302 3.48563471647914 14.563222268739 -87.0162958372606 0 0 1.90184190932084 6.80459615871456 -19.3498211269242 0 0 0 0 0 0
5.9947887301445 0 -0.683528725802898 0 -6.53013832941293 0 0 16.208500123024 0 -23.6916395842792 -3.50681433241368 -3.91038554399572 -7.72383618004249 12.3015629479924 -3.02962590592808 5.14722434574543 -1.74020556820264 2.56038232314657 24.5478148747311 31.3249388818709 -35.6304989288259 89.2988767559872 0 0 0 0 0 -42.7283022539269 -9.21350581702465 37.9853356899237 54.7749308602545 0 0 0 0 0 31.731474169207 3.50727090688133 3.3067433945539 -38.8664606417164 0 0 31.50342621589 7.91912981887859 2.2148381993693 57.8646547196441 0.289298782729266 12.4385543508874 -87.6572612795421 0 0 8.42241580336129 10.6214377405032 -20.8216228761757 0 0 0 0 0 0
8.2766351878643 0 -1.10102728120983 0 -6.55324687791616 0 0 16.2734443664551 0 -22.5985919616299 -0.405352231566108 -1.0016097357594 -10.7862597847231 13.2429204393344 -7.94901326369316 8.18812430645494 -1.56582174718373 2.92125922208828 38.7705164675516 38.9078632160893 -38.6122662415197 95.085856983118 0 0 0 0 0 -58.2734655912456 -4.3023600724005 38.9834263925005 48.8496529628092 0 0 0 0 0 16.8964780939487 4.33902330880026 -2.93744243357866 -28.0146834091568 0 0 31.228341692917 5.89495836356636 3.2961385331845 73.1963944529252 -1.95423435088144 6.95574990110116 -82.3994772791147 0 0 14.0664450915738 14.8281543600968 -23.2728748019624 0 0 0 0 0 0
10.5467927098274 0 -1.51566950902343 0 -6.35171520385722 0 0 16.3287208080292 0 -22.7492026048026 3.53200776111517 0.753607204036001 -12.8957563800945 13.3353667527194 -11.3087026020016 9.50346137327533 -1.30604207333747 2.80800279300993 46.9783099431364 42.4806280047965 -41.4568144367619 100.784188185011 0 0 0 0 0 -69.987676447477 1.67519524263036 38.4053172314847 47.873144232267 0 0 0 0 0 4.70477505029547 3.35112785675743 -6.97436218117098 -18.9544596732497 0 0 20.6284198030398 2.8676911621236 2.86144227453715 84.1960118605205 -1.88016757692508 1.1622065138873 -71.4190397731596 0 0 17.2119089774729 18.0050222841745 -25.7767740040306 0 0 0 0 0 0
12.7914911329746 0 -1.9141679957509 0 -5.9317411748657 0 0 16.4480987668037 0 -23.8227331592833 7.3073324934378 1.38125283330043 -14.0801439494713 12.2109283818953 -12.8031897041327 8.96655776356473 -1.11146090817441 2.23842963161017 48.1343409229927 41.7253219898906 -44.6249960835807 104.787922133068 0 0 0 0 0 -75.7910422871939 6.70407479655361 37.0083539748035 49.7439364610281 0 0 0 0 0 -3.01675966038014 0.555204061245882 -8.60969134686467 -13.0285644974582 0 0 -0.92366173127086 1.58059750588117 2.92468967732898 88.7621985982046 -0.470347164013293 -3.8263379296121 -59.5381715987325 0 0 19.3281989478847 18.6045001218696 -25.9094523819374 0 0 0 0 0 0
15.0984080135822 0 -2.32556782066822 0 -5.35471438502079 0 0 16.5195980191231 0 -24.3772990692857 10.006770284824 1.81184047800261 -14.502944244876 10.1966669501549 -12.9151733907161 7.68300915480774 -0.999798041056016 1.53768431422575 45.1654223444102 38.762434219592 -46.7218390172105 105.999385955964 0 0 0 0 0 -76.3624571807008 10.4227231277733 35.2923599748374 52.9691961833377 0 0 0 0 0 -8.12799469968561 -1.30670952258506 -9.24411789176959 -9.70249715941468 0 0 -22.830840987372 -0.204675367959424 7.42663966302487 87.122985482023 1.28273930804618 -7.52279991635346 -49.5388463708201 0 0 20.7265327354973 16.5893937098295 -23.832146742539 0 0 0 0 0 0
